0
SECTION
2
HEADER
9
$EXTMIN
10
-20.000000
20
-20.000000
30
0.0
9
$EXTMAX
10
10.000000
20
20.000000
30
0.0
9
$LIMMIN
10
-21.200000
20
-21.200000
9
$LIMMAX
10
11.200000
20
21.200000
9
$DIMSCALE
40
1.0
0
ENDSEC
0
SECTION
2
ENTITIES
0
POLYLINE
8
0
66
1
10
0.0
20
0.0
30
0.0
0
VERTEX
8
0
10
-20.000000
20
20.000000
30
0.0
0
VERTEX
8
0
10
-20.000000
20
16.923000
30
0.0
0
VERTEX
8
0
10
-20.000000
20
13.846000
30
0.0
0
VERTEX
8
0
10
-20.000000
20
10.769000
30
0.0
0
VERTEX
8
0
10
-20.000000
20
7.692000
30
0.0
0
VERTEX
8
0
10
-20.000000
20
4.615000
30
0.0
0
VERTEX
8
0
10
-20.000000
20
1.538000
30
0.0
0
VERTEX
8
0
10
-20.000000
20
-1.538000
30
0.0
0
VERTEX
8
0
10
-20.000000
20
-4.615000
30
0.0
0
VERTEX
8
0
10
-20.000000
20
-7.692000
30
0.0
0
VERTEX
8
0
10
-20.000000
20
-10.769000
30
0.0
0
VERTEX
8
0
10
-20.000000
20
-13.846000
30
0.0
0
VERTEX
8
0
10
-20.000000
20
-16.923000
30
0.0
0
VERTEX
8
0
10
-20.000000
20
-20.000000
30
0.0
0
SEQEND
0
POLYLINE
8
0
66
1
10
0.0
20
0.0
30
0.0
0
VERTEX
8
0
10
-10.000000
20
20.000000
30
0.0
0
VERTEX
8
0
10
-10.000000
20
16.923000
30
0.0
0
VERTEX
8
0
10
-10.000000
20
13.846000
30
0.0
0
VERTEX
8
0
10
-10.000000
20
10.769000
30
0.0
0
VERTEX
8
0
10
-10.000000
20
7.692000
30
0.0
0
VERTEX
8
0
10
-10.000000
20
4.615000
30
0.0
0
VERTEX
8
0
10
-10.000000
20
1.538000
30
0.0
0
VERTEX
8
0
10
-10.000000
20
-1.538000
30
0.0
0
VERTEX
8
0
10
-10.000000
20
-4.615000
30
0.0
0
VERTEX
8
0
10
-10.000000
20
-7.692000
30
0.0
0
VERTEX
8
0
10
-10.000000
20
-10.769000
30
0.0
0
VERTEX
8
0
10
-10.000000
20
-13.846000
30
0.0
0
VERTEX
8
0
10
-10.000000
20
-16.923000
30
0.0
0
VERTEX
8
0
10
-10.000000
20
-20.000000
30
0.0
0
SEQEND
0
POLYLINE
8
0
66
1
10
0.0
20
0.0
30
0.0
0
VERTEX
8
0
10
0.000000
20
20.000000
30
0.0
0
VERTEX
8
0
10
0.000000
20
16.923000
30
0.0
0
VERTEX
8
0
10
0.000000
20
13.846000
30
0.0
0
VERTEX
8
0
10
0.000000
20
10.769000
30
0.0
0
VERTEX
8
0
10
0.000000
20
7.692000
30
0.0
0
VERTEX
8
0
10
0.000000
20
4.615000
30
0.0
0
VERTEX
8
0
10
0.000000
20
1.538000
30
0.0
0
VERTEX
8
0
10
0.000000
20
-1.538000
30
0.0
0
VERTEX
8
0
10
0.000000
20
-4.615000
30
0.0
0
VERTEX
8
0
10
0.000000
20
-7.692000
30
0.0
0
VERTEX
8
0
10
0.000000
20
-10.769000
30
0.0
0
VERTEX
8
0
10
0.000000
20
-13.846000
30
0.0
0
VERTEX
8
0
10
0.000000
20
-16.923000
30
0.0
0
VERTEX
8
0
10
0.000000
20
-20.000000
30
0.0
0
SEQEND
0
POLYLINE
8
0
66
1
10
0.0
20
0.0
30
0.0
0
VERTEX
8
0
10
10.000000
20
20.000000
30
0.0
0
VERTEX
8
0
10
10.000000
20
16.923000
30
0.0
0
VERTEX
8
0
10
10.000000
20
13.846000
30
0.0
0
VERTEX
8
0
10
10.000000
20
10.769000
30
0.0
0
VERTEX
8
0
10
10.000000
20
7.692000
30
0.0
0
VERTEX
8
0
10
10.000000
20
4.615000
30
0.0
0
VERTEX
8
0
10
10.000000
20
1.538000
30
0.0
0
VERTEX
8
0
10
10.000000
20
-1.538000
30
0.0
0
VERTEX
8
0
10
10.000000
20
-4.615000
30
0.0
0
VERTEX
8
0
10
10.000000
20
-7.692000
30
0.0
0
VERTEX
8
0
10
10.000000
20
-10.769000
30
0.0
0
VERTEX
8
0
10
10.000000
20
-13.846000
30
0.0
0
VERTEX
8
0
10
10.000000
20
-16.923000
30
0.0
0
VERTEX
8
0
10
10.000000
20
-20.000000
30
0.0
0
SEQEND
0
ENDSEC
0
EOF
