0
SECTION
2
HEADER
9
$EXTMIN
10
-19.100000
20
-26.700000
30
0.0
9
$EXTMAX
10
24.600000
20
20.100000
30
0.0
9
$LIMMIN
10
-20.300000
20
-27.900000
9
$LIMMAX
10
25.800000
20
21.300000
9
$DIMSCALE
40
1.0
0
ENDSEC
0
SECTION
2
ENTITIES
0
POLYLINE
8
0
66
1
10
0.0
20
0.0
30
0.0
0
VERTEX
8
0
10
-19.100000
20
20.100000
30
0.0
0
VERTEX
8
0
10
-16.246523
20
20.031856
30
0.0
0
VERTEX
8
0
10
-13.305215
20
19.974632
30
0.0
0
VERTEX
8
0
10
-10.408125
20
19.921922
30
0.0
0
VERTEX
8
0
10
-7.589931
20
19.871599
30
0.0
0
VERTEX
8
0
10
-4.592606
20
19.817712
30
0.0
0
VERTEX
8
0
10
-1.611547
20
19.762752
30
0.0
0
VERTEX
8
0
10
1.290618
20
19.707101
30
0.0
0
VERTEX
8
0
10
4.064880
20
19.651141
30
0.0
0
VERTEX
8
0
10
6.810353
20
19.592235
30
0.0
0
VERTEX
8
0
10
9.620325
20
19.527147
30
0.0
0
VERTEX
8
0
10
12.436721
20
19.455331
30
0.0
0
VERTEX
8
0
10
15.301633
20
19.372664
30
0.0
0
VERTEX
8
0
10
18.185832
20
19.274146
30
0.0
0
VERTEX
8
0
10
20.937585
20
19.153650
30
0.0
0
VERTEX
8
0
10
24.300000
20
18.800000
30
0.0
0
VERTEX
8
0
10
21.434177
20
18.529208
30
0.0
0
VERTEX
8
0
10
18.545261
20
18.427168
30
0.0
0
VERTEX
8
0
10
15.679234
20
18.347482
30
0.0
0
VERTEX
8
0
10
12.712866
20
18.272624
30
0.0
0
VERTEX
8
0
10
9.796729
20
18.200351
30
0.0
0
VERTEX
8
0
10
6.891232
20
18.125870
30
0.0
0
VERTEX
8
0
10
3.912815
20
18.043864
30
0.0
0
VERTEX
8
0
10
1.062542
20
17.957187
30
0.0
0
VERTEX
8
0
10
-1.910415
20
17.854813
30
0.0
0
VERTEX
8
0
10
-4.804897
20
17.739070
30
0.0
0
VERTEX
8
0
10
-7.703490
20
17.600987
30
0.0
0
VERTEX
8
0
10
-10.521898
20
17.435681
30
0.0
0
VERTEX
8
0
10
-13.368170
20
17.218890
30
0.0
0
VERTEX
8
0
10
-16.147295
20
16.912857
30
0.0
0
VERTEX
8
0
10
-19.000000
20
16.000000
30
0.0
0
VERTEX
8
0
10
-16.381706
20
14.846164
30
0.0
0
VERTEX
8
0
10
-13.498688
20
14.192705
30
0.0
0
VERTEX
8
0
10
-10.574721
20
13.624298
30
0.0
0
VERTEX
8
0
10
-7.648479
20
13.095453
30
0.0
0
VERTEX
8
0
10
-4.765493
20
12.592667
30
0.0
0
VERTEX
8
0
10
-1.886947
20
12.097277
30
0.0
0
VERTEX
8
0
10
1.070452
20
11.586804
30
0.0
0
VERTEX
8
0
10
3.907545
20
11.088834
30
0.0
0
VERTEX
8
0
10
6.727946
20
10.579086
30
0.0
0
VERTEX
8
0
10
9.488853
20
10.058453
30
0.0
0
VERTEX
8
0
10
12.283743
20
9.499644
30
0.0
0
VERTEX
8
0
10
15.041763
20
8.902122
30
0.0
0
VERTEX
8
0
10
17.787498
20
8.236438
30
0.0
0
VERTEX
8
0
10
20.452486
20
7.471692
30
0.0
0
VERTEX
8
0
10
23.058598
20
6.455730
30
0.0
0
VERTEX
8
0
10
24.600000
20
5.000000
30
0.0
0
VERTEX
8
0
10
22.550549
20
3.081035
30
0.0
0
VERTEX
8
0
10
19.852214
20
1.962817
30
0.0
0
VERTEX
8
0
10
17.033167
20
1.027995
30
0.0
0
VERTEX
8
0
10
14.302769
20
0.220950
30
0.0
0
VERTEX
8
0
10
11.470583
20
-0.561392
30
0.0
0
VERTEX
8
0
10
8.625469
20
-1.315920
30
0.0
0
VERTEX
8
0
10
5.838404
20
-2.040013
30
0.0
0
VERTEX
8
0
10
3.015771
20
-2.770044
30
0.0
0
VERTEX
8
0
10
0.203255
20
-3.504866
30
0.0
0
VERTEX
8
0
10
-2.553467
20
-4.243331
30
0.0
0
VERTEX
8
0
10
-5.208716
20
-4.984293
30
0.0
0
VERTEX
8
0
10
-7.970396
20
-5.804775
30
0.0
0
VERTEX
8
0
10
-10.603577
20
-6.664410
30
0.0
0
VERTEX
8
0
10
-13.276920
20
-7.678049
30
0.0
0
VERTEX
8
0
10
-15.750108
20
-8.918059
30
0.0
0
VERTEX
8
0
10
-17.300000
20
-10.600000
30
0.0
0
VERTEX
8
0
10
-15.898412
20
-13.049983
30
0.0
0
VERTEX
8
0
10
-13.488063
20
-14.670412
30
0.0
0
VERTEX
8
0
10
-10.865131
20
-16.020497
30
0.0
0
VERTEX
8
0
10
-8.160378
20
-17.223457
30
0.0
0
VERTEX
8
0
10
-5.455074
20
-18.317307
30
0.0
0
VERTEX
8
0
10
-2.733864
20
-19.345654
30
0.0
0
VERTEX
8
0
10
-0.072556
20
-20.302489
30
0.0
0
VERTEX
8
0
10
2.752445
20
-21.280272
30
0.0
0
VERTEX
8
0
10
5.405831
20
-22.173517
30
0.0
0
VERTEX
8
0
10
8.110362
20
-23.067995
30
0.0
0
VERTEX
8
0
10
10.788949
20
-23.947397
30
0.0
0
VERTEX
8
0
10
13.453621
20
-24.828641
30
0.0
0
VERTEX
8
0
10
16.105078
20
-25.736688
30
0.0
0
VERTEX
8
0
10
18.600000
20
-26.700000
30
0.0
0
SEQEND
0
ENDSEC
0
EOF
